<!DOCTYPE svg PUBLIC "-//W3C//DTD SVG 1.1//EN" "http://www.w3.org/Graphics/SVG/1.1/DTD/svg11.dtd">

<!-- Uploaded to: SVG Repo, www.svgrepo.com, Transformed by: SVG Repo Mixer Tools -->
<svg height="30px" width="30px" version="1.1" id="Capa_1" xmlns="http://www.w3.org/2000/svg" xmlns:xlink="http://www.w3.org/1999/xlink" viewBox="0 0 38.762 38.762" xml:space="preserve" fill="#000000">

<g id="SVGRepo_bgCarrier" stroke-width="0"/>

<g id="SVGRepo_tracerCarrier" stroke-linecap="round" stroke-linejoin="round"/>

<g id="SVGRepo_iconCarrier"> <g> <path style="fill:#f0d1ff;" d="M32.724,0H6.038C5.174,0,4.472,0.703,4.472,1.565v35.633c-0.001,0.861,0.701,1.564,1.566,1.564 h17.268c0.545,0,1.152-0.26,1.587-0.641c0.097-0.075,0.196-0.168,0.294-0.297l8.472-11.228c0.365-0.483,0.632-1.272,0.632-1.88 V1.565C34.291,0.703,33.587,0,32.724,0z M30.563,28.1l-5.69,7.544v-9.359h7.062L30.563,28.1z M32.723,24.719h-7.851 c-0.865,0-1.566,0.702-1.566,1.565v10.912H6.038V1.565h26.685C32.722,1.565,32.722,24.719,32.723,24.719z"/> </g> </g>

</svg>